<svg id="visual" viewBox="0 0 900 600" width="900" height="600" xmlns="http://www.w3.org/2000/svg" xmlns:xlink="http://www.w3.org/1999/xlink" version="1.1"><g fill="#3B82F6"><circle r="46" cx="530" cy="186"></circle><circle r="15" cx="879" cy="485"></circle><circle r="14" cx="285" cy="481"></circle><circle r="39" cx="760" cy="11"></circle><circle r="20" cx="251" cy="151"></circle><circle r="28" cx="588" cy="597"></circle><circle r="39" cx="56" cy="449"></circle><circle r="33" cx="286" cy="262"></circle><circle r="37" cx="648" cy="90"></circle><circle r="26" cx="684" cy="355"></circle><circle r="22" cx="384" cy="520"></circle><circle r="20" cx="99" cy="308"></circle><circle r="33" cx="702" cy="497"></circle><circle r="28" cx="776" cy="569"></circle><circle r="30" cx="407" cy="25"></circle><circle r="37" cx="419" cy="365"></circle><circle r="24" cx="802" cy="430"></circle><circle r="35" cx="402" cy="191"></circle><circle r="18" cx="646" cy="246"></circle><circle r="26" cx="6" cy="341"></circle><circle r="20" cx="224" cy="558"></circle><circle r="19" cx="775" cy="146"></circle></g></svg>